<svg xmlns="http://www.w3.org/2000/svg">

  <g transform="translate(0,0)">
    <g id="diku" shape-rendering="crispEdges" fill="currentColor">
      <path id="D"
        d="
          M 0,0
          15,0
          15,5
          5,5
          5,20
          15,20
          15,25
          0,25

          m 15,-20
          l 5,0
          l 0,15
          l -5,0
        "
      />

      <path id="I"
        d="
          M 25,0
          l 5,0
          l 0,25
          l -5,0
        "
      />

      <path id="K"
        d="
          M 35,0
          l 5,0
          l 0,10
          l 10,0
          l 0,5
          l -10,0
          l 0,10
          l -5,0

          m 15,0
          l 5,0
          l 0,-10
          l -5,0

          m 0,-5
          l 5,0
          l 0,-10
          l -5,0
        "
      />



      <path id="K"
        d="
          M 65,0
          l -5,0
          l 0,20
          l 5,0

          m 0,0
          l 0,5
          l 10,0
          l 0,-5

          m 0,0
          l 5,0
          l 0,-20
          l -5,0
        "
      />
    </g>
  </g>

  <g transform="translate(0.5,30.5)">
    <g id="revy" shape-rendering="crispEdges" fill="currentColor">
      <path id="R"
        d="
          M 0,0 l4,0 l0,4 l-4,0
          m 0,1 l4,0 l0,4 l-4,0
          m 0,1 l4,0 l0,4 l-4,0
          m 0,1 l4,0 l0,4 l-4,0
          m 0,1 l4,0 l0,4 l-4,0

          m 5,-24 l4,0 l0,4 l-4,0
          m 5,-4 l4,0 l0,4 l-4,0

          m 5,1 l4,0 l0,4 l-4,0

          m -10,1 l4,0 l0,4 l-4,0
          m 5,-4 l4,0 l0,4 l-4,0

          m 5,1 l4,0 l0,4 l-4,0
          m 0,1 l4,0 l0,4 l-4,0
        "
      />

      <path id="E"
        d="
          M 25,5 l4,0 l0,4 l-4,0
          m 0,1 l4,0 l0,4 l-4,0
          m 0,1 l4,0 l0,4 l-4,0

          m 5,-19 l4,0 l0,4 l-4,0
          m 5,-4 l4,0 l0,4 l-4,0
          m 5,-4 l4,0 l0,4 l-4,0

          m -10,6 l4,0 l0,4 l-4,0
          m 5,-4 l4,0 l0,4 l-4,0

          m -5,6 l4,0 l0,4 l-4,0
          m 5,-4 l4,0 l0,4 l-4,0
          m 5,-4 l4,0 l0,4 l-4,0
        "
      />

      <path id="V"
        d="
          M 50,0 l4,0 l0,4 l-4,0
          m 0,1 l4,0 l0,4 l-4,0
          m 0,1 l4,0 l0,4 l-4,0
          m 0,1 l4,0 l0,4 l-4,0

          m 5,1 l4,0 l0,4 l-4,0
          m 5,-9 l4,0 l0,4 l-4,0
          m 5,-9 l4,0 l0,4 l-4,0
          m 0,-9 l4,0 l0,4 l-4,0
          m 0,-9 l4,0 l0,4 l-4,0
        "
      />

      <path id="Y"
        d="
          M 75,0 l4,0 l0,4 l-4,0
          m 0,1 l4,0 l0,4 l-4,0

          m 10,-9 l4,0 l0,4 l-4,0
          m 0,1 l4,0 l0,4 l-4,0

          m -5,1 l4,0 l0,4 l-4,0
          m 0,1 l4,0 l0,4 l-4,0
          m 0,1 l4,0 l0,4 l-4,0
        "
      />
    </g>
  </g>

  <g transform="translate(0, 60)">
    <g id="dancer" fill="currentColor">
      <path d="m 11.83,100.50 c -0.82,-2.90 -3.28,-0.75 -1.44,-8.85 5.50,0.73 13.18,2.57 18.44,1.29 6.21,-0.70 14.14,-3.22 17.01,-9.40 1.77,-4.39 0.20,-12.18 3.49,-16.03 3.22,-4.69 5.53,-10.00 9.56,-14.10 3.63,-4.13 7.55,-8.03 10.98,-12.32 3.01,-3.46 6.48,0.14 4.46,3.63 -2.61,10.30 -11.67,17.43 -14.37,27.72 -1.99,6.18 -3.95,12.41 -4.69,18.89 -0.85,4.40 -1.98,9.73 -6.56,11.71 -5.79,2.81 -11.82,5.92 -18.46,5.63 -6.07,0.81 -9.03,-4.09 -14.78,-4.99 -0.89,-0.42 -0.52,-1.38 -3.63,-3.18 l -1e-4,0 z"/>
      <path d="m 12.13,107.37 c -0.90,0.82 -2.06,1.36 -2.80,2.35 -0.96,0.72 -2.28,1.39 -2.42,2.73 0.12,1.22 1.78,0.35 2.59,0.56 1.47,-0.14 2.96,-0.24 4.42,-0.51 1.65,-0.13 3.30,-0.39 4.94,-0.69 1.22,-0.34 2.41,-0.95 3.71,-0.85 0.95,-0.31 2.65,-0.17 2.78,-1.48 -0.17,-0.99 -1.34,-1.15 -2.03,-1.69 -1.84,-1.07 -3.59,-2.40 -5.68,-2.99 -1.49,-0.29 -2.63,0.93 -3.82,1.59 -0.56,0.31 -1.17,0.58 -1.69,0.97 z"/>
      <path d="m 48.54,108.56 c 3.53,-1.48 7.14,-1.09 10.90,-1.24 2.02,-0.05 4.33,-0.66 6.36,-0.73 0.61,0.04 3.19,2.19 3.45,1.49 -0.55,-0.75 -3.17,-2.16 -3.87,-2.76 -1.39,-0.76 -2.76,-1.60 -4.32,-2.01 -1.29,-0.40 -2.55,-0.90 -3.80,-1.44 -1.20,-0.36 -2.50,-0.05 -3.58,0.52 -1.03,0.45 -2.12,0.82 -3.07,1.44 -1.13,0.95 -1.72,2.37 -2.64,3.50 -0.22,0.45 -0.11,1.40 0.59,1.22 l 0,0 z"/>
      <path d="m 15.14,103.41 c 2.93,2.77 5.47,3.84 6.52,4.54 2.80,1.32 2.38,2.35 5.45,2.80 2.70,0.38 8.88,0.74 11.64,0.66 3.68,0.40 7.09,-1.41 10.56,-2.37 2.32,-1.08 4.82,-1.70 6.98,-3.14 2.18,-1.39 4.27,-2.70 5.73,-4.81 1.10,-1.65 0.87,-3.52 1.22,-5.26 0.15,0.31 0.54,-3.18 0.41,-4.22 -0.54,-4.37 -0.25,-5.00 -0.57,-7.66 -0.82,-3.46 -0.03,-10.94 -2.42,-13.91 0.68,-2.32 -0.33,0.73 -1.50,2.75 -2.95,1.75 -5.91,3.95 -7.20,7.27 -0.42,2.54 0.75,5.92 1.33,8.29 0.54,2.10 1.23,3.12 -0.27,4.78 -1.59,1.82 -7.39,3.70 -9.79,4.66 -3.46,2.01 -2.89,2.79 -6.68,3.90 -2.59,0.48 -5.34,1.47 -7.91,0.44 -2.34,0 -4.73,-0.17 -7.05,0.19 -4.45,1.71 -6.22,-0.41 -9.52,-1.80"/>
      <path d="m 50.81,8.53 c 2.95,2.89 7.21,2.91 11.08,2.95 2.31,0.37 3.28,2.89 3.67,4.92 0.47,2.34 2.40,3.89 3.89,5.60 2.02,2.53 5.01,4.62 8.36,4.58 1.76,0.12 3.81,2.77 5.26,1.49 -0.25,-2.26 -2.15,-3.92 -2.98,-5.99 -2.09,-3.46 -5.20,-6.13 -8.49,-8.43 -2.31,-1.66 -4.17,-3.85 -6.53,-5.47 -1.92,-1.45 -4.03,-2.81 -6.46,-3.17 -3.25,0.34 -5.17,-0.27 -7.36,1.22 -0.64,0.54 -0.81,1.36 -0.45,2.29 z"/>
      <path d="m 64.62,56.40 c 1.51,-1.86 3.49,-3.37 4.44,-5.64 1.94,-3.91 5.50,-7.17 6.00,-11.71 0.94,-4.11 0.25,-8.35 0.56,-12.51 -0.53,-2.47 -0.54,-4.62 -2.83,-7.41 -0.94,-1.14 -5.35,-3.48 -4.59,-5.00 0.11,0.84 2.36,-0.41 5.32,2.46 1.91,1.23 3.07,2.33 5.07,3.54 2.16,1.99 4.54,5.57 5.60,8.34 0.09,3.22 0.98,5.32 -0.47,8.44 -1.14,2.63 -1.65,5.60 -3.76,7.72 -1.37,2.20 -4.24,5.46 -6.37,6.89 -1.79,1.46 -1.96,3.42 -3.44,5.23 -1.53,1.72 -3.08,2.10 -4.62,3.79 -1.16,1.90 -2.43,3.78 -3.32,5.84 -0.15,1.22 -1.57,2.03 -1.66,0.26 1.61,-9.76 -1.58,-1.61 4.08,-10.26 z"/>
      <path d="m 15.71,140.80 c 1.42,-1.09 -3.05,-1.20 -3.68,-2.43 -2.79,-1.82 -4.17,-3.41 -6.30,-5.95 -1.31,-1.33 -5.29,0.50 -5.72,-1.01 2.56,-2.29 5.93,-3.82 9.09,-4.50 2.74,-0.34 5.55,-0.36 8.24,-0.99 5.08,-2.32 10.45,-5.06 16.22,-4.33 2.63,0.88 3.79,6.17 7.15,3.89 2.54,-1.53 5.24,-3.11 8.31,-3.12 2.61,-0.12 5.23,0.52 7.55,1.72 2.13,-0.08 6.49,0.56 5.24,3.64 -2.02,3.29 -5.90,4.54 -8.93,6.67 -4.24,2.44 -8.55,5.75 -13.68,5.62 -5.10,-0.31 -10.15,-2.89 -15.29,-1.30 -2.77,0.54 -5.36,1.93 -8.20,2.10 z"/>
      <path d="m 60.48,127.07 c 0.93,-1.90 -0.06,-3.97 -0.23,-5.93 -0.56,-1.93 -2.20,-3.30 -2.87,-5.18 -0.59,-1.31 -4.09,-2.21 -4.15,-3.65 0.97,-1.17 3.79,0.36 5.04,0.39 2.20,0.33 4.43,-0.64 6.66,-0.84 1.52,0.07 2.16,0.27 3.66,0 2.43,0 5.80,0.21 8.21,0.78 1.43,0.37 2.38,1.65 2.71,3.05 0.26,1.29 1.18,2.22 2.06,3.14 0.97,0.90 1.02,2.36 0.25,3.40 -1.14,1.82 -3.20,2.72 -4.82,4.05 -2.94,2.09 -6.17,4.18 -9.87,4.47 -1.81,0.06 -3.54,-0.71 -4.95,-1.80 -0.75,-0.39 -1.72,-0.91 -1.70,-1.90 z"/>
      <path d="m 36.31,199.29 c -1.56,0.06 -5.06,-0.45 -6.43,-1.35 -1.82,-0.56 0.08,-3.08 1.94,-3.51 3.43,-1.47 6.94,-3.43 9.58,-6.22 0.84,-1.18 2.68,-1.39 4.18,-0.79 2.85,1.16 3.55,5.39 1.40,7.54 -1.85,2.11 -4.60,3.02 -6.88,4.55 -1.18,0.57 -2.70,0.58 -3.79,-0.20 z"/>
      <path d="m 48.54,176.01 c -0.36,1.18 -2.95,2.97 -3.97,3.92 -1.34,0.89 -2.76,-0.70 -3.19,-1.89 -0.99,-2.47 -2.79,-4.92 -2.27,-7.73 0.33,-1.94 -0.34,-5.85 1.10,-7.09 1.79,-2.22 4.82,-2.58 6.11,-5.09 0.91,-1.10 2.69,-11.58 9.90,-12.39 1.09,1.04 0.40,9.69 -3.95,15.50 -0.43,3.11 -0.96,0.34 -2.76,4.35 -0.71,1.58 -0.50,8.74 -0.96,10.42 z"/>
      <path d="m 32.51,198.43 c 4.17,-1.83 9.08,-1.99 11.86,-5.81 -2.55,-4.65 -0.90,0.41 -8.56,-13.83 -2.55,-5.22 -4.55,-10.93 -5.56,-16.53 -1.05,-5.30 0.66,-11.52 -1.23,-16.63 -3.48,-3.46 -7.30,-0.45 -10.88,-3.97 -5.34,-2.83 -10.55,-5.64 -10.86,-7.77 4.75,-0.44 11.26,-4.27 15.64,-6.34 4.60,-4.24 4.32,8.33 8.93,8.30 4.59,1.04 9.49,0.71 14.13,0 2.21,-4.89 2.01,-4.03 5.36,-7.15 4.04,-1.78 13.81,-5.48 15.16,-10.10 -3.83,-11.11 4.70,-4.46 7.82,-2.20 3.98,1.66 9.78,3.62 11.38,7.42 -7.68,13.01 -11.06,5.64 -14.83,10.30 -4.70,2.15 5.63,12.05 -6.10,14.84 -3.43,4.75 -8.90,9.94 -13.02,13.99 -1.40,-4.13 1.49,-9.09 1.46,-13.53 10.96,-14.40 1.96,-10.71 -7.23,-7.69 -2.72,3.32 -0.07,11.13 -2.61,14.74 -3.11,3.88 -4.65,5.56 -3.51,10.77 1.55,5.43 3.82,10.55 6.67,15.44 3.11,4.28 3.07,8.12 3.91,13.49 1.52,4.43 -7.66,2.38 -11.81,3.65 -1.95,0.60 -4.35,-0.32 -6.09,-1.40 z"/>
      <path d="m 58.26,47.32 c -3.43,3.37 -8.22,4.72 -11.92,7.73 -3.25,2.06 -3.51,3.34 -6.00,8.30 -2.71,1.29 -4.75,7.28 -7.99,7.01 -1.69,-3.13 -4.56,-6.26 -4.65,-9.88 -0.41,-2.81 3.42,-9.97 -0.84,-11.07 -2.38,-1.99 -4.18,-5.72 -7.92,-4.84 -3.28,0.69 -3.05,8.82 -3.02,11.65 -0.94,4.25 -1.88,10.52 -3.07,14.73 1.03,-3.45 -0.68,-13.37 -0.53,-16.90 -0.67,-3.95 -3.51,-5.75 -6.14,-8.38 -2.60,-1.99 -5.76,-5.87 -4.49,-9.24 1.83,0.04 2.34,4.42 4.55,5.34 2.73,3.30 5.93,-1.10 8.68,-2.74 3.88,-1.25 9.31,0.55 11.86,-3.18 1.71,-3.46 -2.08,-6.84 1.43,-11.09 1.09,-1.32 5.10,-3.52 4.33,-3.16 -1.09,3.59 -3.61,7.92 -2.40,11.59 0.12,3.32 2.99,6.80 6.58,6.08 3.30,-1.29 8.19,-0.18 7.96,4.16 0.29,2.94 0.72,4.84 5.07,5.33 2.11,-7.28 8.45,-3.99 11.90,-5.10 0.52,-0.33 -1.94,2.72 -3.37,3.66 l 9e-5,0 z"/>
      <path d="m 46.28,23.97 c 1.50,0.23 3.06,0.79 4.08,1.97 0.91,1.21 0.98,2.81 0.87,4.27 0.03,1.00 0.07,2.18 -0.71,2.94 -0.80,0.92 -1.66,1.81 -2.46,2.74 -0.67,0.59 -1.69,0.38 -2.37,-0.07 -1.29,-0.83 -1.83,-2.34 -2.68,-3.56 -0.59,-0.86 -0.95,-1.85 -1.25,-2.86 -0.22,-0.75 -0.52,-1.48 -0.83,-2.20 -0.21,-0.66 -0.21,-1.19 0.29,-1.64 1.13,-1.49 3.50,-1.55 5.08,-1.57 z"/>
      <path d="m 29.14,51.54 c -0.95,-1.31 2.77,0 3.07,0.67 1.91,1.81 3.21,4.18 5.13,5.99 1.79,1.43 4.31,1.25 6.37,0.54 2.19,-1.50 2.31,-4.41 2.37,-6.81 0.22,-2.45 0.43,-4.91 0.55,-7.37 0.35,-2.51 1.39,-6.00 2.09,-7.28 3.86,-7.12 0.73,-2.78 1.34,-4.08 0.19,-2.07 -1.65,-3.44 -3.04,-4.63 -1.33,-1.31 -2.69,-3.02 -4.74,-3.08 -1.76,-0.06 -2.43,1.89 -2.99,3.22 -1.08,3.27 1.02,6.47 0.81,9.76 -0.49,3.20 -3.66,5.29 -3.87,8.59 0.36,1.76 -1.28,2.79 -2.74,3.26 -2.31,-1.52 -4.63,0.10 -4.36,1.23 z"/>
      <path d="m 12.89,41.62 c -2.08,-2.86 -4.54,-8.68 -5.69,-15.05 -0.01,-2.50 1.86,-4.51 2.03,-6.97 0.78,-2.86 1.95,-5.62 2.37,-8.58 0.61,-2.51 -0.31,-5.59 0.91,-7.90 1.12,-1.73 4.22,-2.45 6.16,-3.09 2.55,0 11.18,0.93 12.90,2.50 1.88,-0.16 -4.19,0.93 -6.06,1.51 -2.33,1.38 -4.35,3.22 -6.10,5.28 -2.28,2.32 -4.03,5.20 -4.77,8.40 -0.75,2.21 0.79,3.21 0.56,5.54 -0.46,2.71 -1.05,6.78 -0.37,9.47 0.37,1.22 -0.01,10.45 -1.94,8.88 z"/>
      <path d="m 14.36,10.60 c -0.25,-0.59 -1.34,-0.86 -0.60,-0.57 -1.36,0.04 -1.69,-4.29 -1.90,-4.98 1.14,-1.85 3.47,0.88 5.45,0.52 2.00,0.09 4.04,0.04 5.78,-1.09 1.86,-0.93 4.15,-1.72 6.24,-2.17 1.30,-0.84 3.86,0.17 1.55,0.82 -2.44,0.69 -3.90,2.90 -4.63,4.29 -2.60,4.98 -6.24,3.50 -9.77,3.17 -0.70,0 -1.41,0.04 -2.12,0 l 0,-4.8e-4 z"/>
      <path d="m 46.90,9.15 c 2.11,0.76 9.75,5.72 12.05,6.07 0.98,0.09 4.12,0.55 5.10,0.19 0.76,-0.46 1.89,-0.44 1.40,-0.73 -1.35,-1.02 0.30,-2.72 -1.46,-3.10 -1.08,-0.40 -7.07,-1.73 -8.11,-0.98 -0.38,0.30 -8.94,-1.91 -8.98,-1.44 z"/>
    </g>
  </g>
</svg>
